<?xml version="1.0" ?><svg data-name="Layer 1" id="Layer_1" viewBox="0 0 128 128" xmlns="http://www.w3.org/2000/svg"><title/><path d="M64,46.3A17.7,17.7,0,1,0,81.7,64,17.73,17.73,0,0,0,64,46.3Zm9.7,27.4a2.41,2.41,0,0,1-3.4,0L64,67.4l-6.3,6.3a2.41,2.41,0,0,1-3.4,0,2.48,2.48,0,0,1,0-3.4L60.6,64l-6.3-6.3a2.4,2.4,0,0,1,3.4-3.4L64,60.6l6.3-6.3a2.4,2.4,0,0,1,3.4,3.4L67.4,64l6.3,6.3A2.48,2.48,0,0,1,73.7,73.7Z"/><path d="M98,0H30A30,30,0,0,0,0,30V98a30,30,0,0,0,30,30H98a30,30,0,0,0,30-30V30A30,30,0,0,0,98,0ZM64,86.5A22.5,22.5,0,1,1,86.5,64,22.53,22.53,0,0,1,64,86.5Z"/></svg>