<?xml version="1.0" ?><svg data-name="Layer 1" id="Layer_1" viewBox="0 0 128 128" xmlns="http://www.w3.org/2000/svg"><title/><path d="M50,81.25c0,6.57,2.74,6.57,3.83,6.57h20c1.1,0,4.11,0,4.11-6.85l1.64-25.19H48.12ZM68.11,61.54a1.79,1.79,0,0,1,3.56.27l-1.1,17.25a1.83,1.83,0,0,1-1.92,1.64c-1.1,0-1.64-.82-1.64-1.92Zm-9.86-1.64c1.1,0,1.92.55,1.92,1.64L61,78.79a1.54,1.54,0,0,1-1.64,1.92,1.58,1.58,0,0,1-1.64-1.64l-1.1-17.25C56.61,60.71,57.15,59.89,58.25,59.89Z"/><path d="M84.26,47.84H43.46a.59.59,0,0,0-.55.55v3.29a.59.59,0,0,0,.55.55h40.8a.59.59,0,0,0,.55-.55V48.39A.59.59,0,0,0,84.26,47.84Z"/><path d="M98,0H30A30,30,0,0,0,0,30V98a30,30,0,0,0,30,30H98a30,30,0,0,0,30-30V30A30,30,0,0,0,98,0ZM88.64,51.68a4.21,4.21,0,0,1-4.11,4.11h-1.1L81.8,81.25c-.27,9-5.48,10.13-7.67,10.13h-20c-2.74,0-7.39-1.37-7.39-10.13L44.83,55.79H43.46A4.39,4.39,0,0,1,39.36,52V48.39a4.21,4.21,0,0,1,4.11-4.11h4.66v-.55a7.25,7.25,0,0,1,7.12-7.12H72.76a7.25,7.25,0,0,1,7.12,7.12v.55h4.66a4.42,4.42,0,0,1,4.11,4.11Z"/><path d="M76,43.74a3.62,3.62,0,0,0-3.56-3.56H55.24a3.62,3.62,0,0,0-3.56,3.56v.55H76Z"/></svg>